<?xml version="1.0" encoding="utf-8"?>
<svg version="1.1" xmlns="http://www.w3.org/2000/svg" xmlns:xlink="http://www.w3.org/1999/xlink" preserveAspectRatio="xMinYMin" x="0px" y="0px" width="306" height="42" viewBox="0 0 306 42">
	<path d="M99.4,8.7c0.9,0,1.9,0.2,2.7,0.6c0.8,0.5,1.4,1.1,1.9,1.9l-1.2,0.9c-0.4-0.7-0.9-1.2-1.5-1.6c-0.6-0.3-1.3-0.5-2-0.5c-0.5,0-1.1,0.1-1.6,0.3c-0.4,0.1-0.7,0.4-0.9,0.7c-0.2,0.3-0.3,0.6-0.3,1c0,0.4,0.1,0.8,0.4,1.1c0.4,0.4,1,0.7,1.6,0.8l2.6,0.6c0.9,0.1,1.7,0.5,2.4,1.1c0.5,0.5,0.7,1.2,0.7,1.9c0,0.6-0.2,1.3-0.6,1.8c-0.4,0.5-1,1-1.6,1.2c-0.8,0.3-1.6,0.4-2.4,0.4c-0.8,0-1.5-0.1-2.3-0.4c-0.6-0.2-1.2-0.6-1.7-1c-0.5-0.4-0.8-0.8-1.2-1.3l1.3-1c0.2,0.4,0.5,0.9,0.9,1.2c0.4,0.4,0.8,0.6,1.3,0.8c0.6,0.2,1.2,0.3,1.8,0.3c0.5,0,1.1-0.1,1.6-0.2c0.4-0.1,0.7-0.4,1-0.7c0.5-0.6,0.5-1.5,0-2.1c-0.4-0.4-0.9-0.6-1.4-0.7l-2.8-0.6c-0.6-0.1-1.2-0.4-1.8-0.7c-0.4-0.3-0.8-0.6-1-1.1c-0.2-0.4-0.3-0.9-0.3-1.3c0-0.6,0.2-1.2,0.5-1.8c0.4-0.5,0.9-1,1.5-1.2C97.8,8.9,98.6,8.7,99.4,8.7z"/>
	<path d="M118.7,8.9v11.9h-1.4v-7.5l0.2-3.1l0,0l-3.9,10.6h-1.2l-3.9-10.6l0,0l0.2,3.1v7.5h-1.4V8.9h2.2l2.6,7.2l0.9,3l0,0l0.9-3l2.6-7.2L118.7,8.9z"/>
	<polygon points="124.5,41.6 122.4,41.6 151.6,0 153.7,0 		"/>
	<path d="M9.8,24H6.1v8.7H0V8.9h11.3c2.9,0,5.1,0.6,6.6,1.9c1.5,1.3,2.3,3.2,2.3,5.6c0,1.7-0.4,3.2-1.2,4.3s-1.9,2-3.5,2.6l6,9.3h-6.8L9.8,24z M6.1,19.6h4.2c1.3,0,2.3-0.2,2.9-0.7c0.6-0.5,0.9-1.2,0.9-2.3c0-1-0.3-1.8-0.9-2.3c-0.6-0.5-1.6-0.7-2.9-0.7H6.1V19.6z"/>
	<path d="M38.4,27.3h-8.2l-1.7,5.4h-6.2l8.4-23.8h7.4l8.3,23.8H40L38.4,27.3z M37.1,23.1l-1.7-5.7l-1-3.7h-0.1l-1,3.7l-1.8,5.7H37.1z"/>
	<path d="M67.8,12c2,2.1,3,5,3,8.8c0,3.8-1,6.8-3,8.8s-4.8,3.1-8.5,3.1H49.2V8.9h10.1C63,8.9,65.8,9.9,67.8,12zM63,26.2c0.9-1.2,1.4-3,1.4-5.4c0-2.4-0.5-4.2-1.4-5.4c-0.9-1.2-2.4-1.8-4.4-1.8h-3.3V28h3.3C60.6,28,62.1,27.4,63,26.2z"/>
	<path d="M86.2,32.7l-3.5-6.3l-3.6,6.3h-6.8l6.5-9.1l-6.2-8.9h6.9l3.3,6l3.4-6H93l-6.3,8.9l6.4,9.1H86.2z"/>
	<path d="M175.6,31v1.7h-16.1V8.9h1.8V31H175.6z"/>
	<path d="M195.4,31.2l-0.1,1.4c-0.4,0.2-1,0.4-1.8,0.4c-0.8,0-1.5-0.2-2.1-0.7c-0.5-0.5-0.8-1.2-0.9-2.4c-0.6,1-1.4,1.7-2.7,2.2s-2.5,0.8-3.9,0.8c-1.8,0-3.2-0.4-4.3-1.2c-1.1-0.8-1.6-1.9-1.6-3.4c0-2.8,2.3-4.6,6.8-5.4l5.5-1v-1.6c0-1.4-0.4-2.6-1.3-3.4c-0.9-0.8-2.1-1.2-3.6-1.2c-2.9,0-4.8,1.3-5.8,3.8l-1.4-1c0.5-1.4,1.4-2.5,2.6-3.3c1.2-0.8,2.7-1.1,4.5-1.1c2.1,0,3.7,0.5,4.9,1.5c1.2,1,1.8,2.5,1.8,4.4v9.3c0,1.3,0.6,1.9,1.7,1.9C194.6,31.5,195.1,31.4,195.4,31.2z M187.2,30.9c1-0.3,1.8-0.9,2.4-1.5s1-1.5,1-2.5v-3.3l-4.9,0.9c-1.9,0.4-3.4,0.9-4.2,1.5c-0.9,0.6-1.3,1.5-1.3,2.5c0,1,0.4,1.7,1.1,2.2c0.7,0.5,1.8,0.8,3.1,0.8C185.3,31.4,186.3,31.3,187.2,30.9z"/>
	<path d="M213.6,16.8c1.5,1.7,2.2,3.9,2.2,6.9c0,2.9-0.7,5.2-2.2,6.9c-1.5,1.7-3.5,2.5-6,2.5c-1.6,0-3-0.4-4.2-1.2c-1.2-0.8-2-1.9-2.5-3.2l-0.1,4h-1.6V6.4h1.8v12.1c0.6-1.3,1.4-2.3,2.6-3.1c1.2-0.7,2.5-1.1,4-1.1C210.1,14.3,212.1,15.1,213.6,16.8z M212.2,29.4c1.2-1.4,1.8-3.3,1.8-5.7c0-2.4-0.6-4.3-1.8-5.7c-1.2-1.4-2.8-2.1-4.9-2.1c-1.9,0-3.4,0.6-4.5,1.9c-1.2,1.3-1.8,3-1.9,5.2v1.3c0.1,2.2,0.7,3.9,1.9,5.2c1.2,1.3,2.7,1.9,4.5,1.9C209.4,31.4,211,30.8,212.2,29.4z"/>
	<path d="M248.1,31.4c-1.7,1.1-3.7,1.7-6,1.7c-2.2,0-4.1-0.5-5.7-1.5c-1.6-1-2.9-2.4-3.8-4.3c-0.9-1.8-1.3-4-1.3-6.5s0.4-4.6,1.3-6.5c0.9-1.8,2.1-3.3,3.8-4.3c1.6-1,3.5-1.5,5.7-1.5c4.8,0,7.8,2,9.2,5.9l-1.8,0.8c-0.6-1.7-1.4-2.9-2.6-3.8c-1.2-0.8-2.8-1.3-4.7-1.3c-1.8,0-3.3,0.4-4.7,1.3c-1.4,0.9-2.4,2.1-3.1,3.7c-0.7,1.6-1.1,3.5-1.1,5.6s0.4,4,1.1,5.6c0.7,1.6,1.8,2.8,3.1,3.7c1.3,0.9,2.9,1.3,4.7,1.3c1.9,0,3.6-0.5,4.9-1.4c1.3-0.9,2.3-2.3,2.8-4l1.8,0.7C251,28.7,249.8,30.2,248.1,31.4z"/>
	<path d="M269.9,16.8c1.5,1.7,2.3,4,2.3,6.9c0,2.9-0.8,5.2-2.3,6.9c-1.5,1.7-3.6,2.5-6.3,2.5s-4.8-0.8-6.3-2.5s-2.3-4-2.3-6.9c0-2.9,0.8-5.2,2.3-6.9c1.5-1.7,3.6-2.5,6.3-2.5S268.4,15.1,269.9,16.8z M258.7,17.9c-1.2,1.4-1.8,3.3-1.8,5.7c0,2.4,0.6,4.3,1.8,5.7c1.2,1.4,2.9,2.1,5,2.1c2.1,0,3.8-0.7,5-2.1c1.2-1.4,1.8-3.3,1.8-5.7c0-2.4-0.6-4.3-1.8-5.7s-2.9-2.1-5-2.1C261.5,15.9,259.9,16.6,258.7,17.9z"/>
	<path d="M287.3,14.9l-0.5,1.7c-0.6-0.4-1.3-0.6-2.3-0.6c-0.9,0-1.8,0.3-2.6,0.8c-0.8,0.6-1.5,1.4-1.9,2.4c-0.5,1-0.7,2.2-0.7,3.4v10.1h-1.8v-18h1.5l0.2,3.7c0.5-1.3,1.3-2.3,2.2-3c1-0.7,2.2-1.1,3.6-1.1C286,14.3,286.7,14.5,287.3,14.9z"/>
	<path d="M305.1,24.4h-14.3c0.1,2.2,0.8,3.9,2,5.2c1.2,1.2,2.8,1.9,4.8,1.9c1.4,0,2.6-0.3,3.7-0.9c1-0.6,1.8-1.4,2.2-2.4l1.5,0.8c-0.7,1.3-1.6,2.3-2.9,3c-1.2,0.7-2.7,1.1-4.5,1.1c-2.7,0-4.7-0.8-6.2-2.5s-2.2-3.9-2.2-6.9c0-2.9,0.7-5.2,2.2-6.9s3.5-2.5,6.1-2.5c2.4,0,4.4,0.8,5.8,2.4c1.4,1.6,2.1,3.8,2.1,6.5C305.2,23.6,305.1,24,305.1,24.4z M292.7,17.7c-1.1,1.2-1.8,2.9-1.9,5.1h12.7c-0.1-2.2-0.7-3.9-1.8-5.1c-1.1-1.2-2.5-1.8-4.4-1.8C295.4,15.9,293.8,16.5,292.7,17.7z"/>
</svg>
