<svg xmlns="http://www.w3.org/2000/svg" xmlns:xlink="http://www.w3.org/1999/xlink" height="73" viewBox="0 0 517 73">
  <g id="Artboard_12" data-name="Artboard – 12" clip-path="url(#clip-Artboard_12)">
    <g id="Group_7" data-name="Group 7" transform="translate(83.885 13)">
      <path id="Path_4" data-name="Path 4" d="M8-23.969V-71H28.468A12.85,12.85,0,0,1,34.3-69.675a15.285,15.285,0,0,1,4.6,3.511,16.6,16.6,0,0,1,3.047,4.9A14.779,14.779,0,0,1,43.042-55.7a16.069,16.069,0,0,1-1.126,5.962,14.014,14.014,0,0,1-3.213,4.9,12.477,12.477,0,0,1-4.869,2.981L44.9-23.969H36.55L26.349-40.33H15.419v16.362Zm7.419-22.919H28.4a5.911,5.911,0,0,0,3.643-1.192,8.192,8.192,0,0,0,2.517-3.213A10.432,10.432,0,0,0,35.49-55.7,9.088,9.088,0,0,0,34.43-60.1a9.07,9.07,0,0,0-2.749-3.146A6.244,6.244,0,0,0,28-64.442H15.419ZM65.365-71h7.022L90.669-23.969H82.852L77.884-36.753H59.734l-4.9,12.785H46.95ZM76.427-42.251l-7.551-20.6-7.816,20.6ZM96.5-23.969V-71h16.693a23.821,23.821,0,0,1,12.718,3.146,19.841,19.841,0,0,1,7.651,8.479,27.051,27.051,0,0,1,2.55,11.824A26.174,26.174,0,0,1,133.295-35.1a20.007,20.007,0,0,1-7.982,8.214,24.265,24.265,0,0,1-12.122,2.915Zm32.061-23.582a20.114,20.114,0,0,0-1.822-8.777,14.04,14.04,0,0,0-5.233-5.962,15.27,15.27,0,0,0-8.313-2.153h-9.274v33.915h9.274a14.879,14.879,0,0,0,8.38-2.252,14.44,14.44,0,0,0,5.2-6.094A20.325,20.325,0,0,0,128.559-47.551Zm17.885-11.062,8.214,11.857.6,1.126.6-1.126L164-58.613h7.883L159.427-41.258l12.586,17.289H164.13L155.85-35.76l-.6-1.06-.6,1.06-8.28,11.791h-7.883l12.586-17.223L138.627-58.613Z" transform="translate(-8 70.662)" fill="#2a527b"/>
      <path id="Path_3" data-name="Path 3" d="M13.88-25.341a5.667,5.667,0,0,0-1.007-.888,5.936,5.936,0,0,0-1.192-.636,7.152,7.152,0,0,0-1.378-.384,9.045,9.045,0,0,0-1.59-.132A6.243,6.243,0,0,0,4.7-26.335,3.48,3.48,0,0,0,3.44-23.513a2.919,2.919,0,0,0,.57,1.894A3.881,3.881,0,0,0,5.8-20.492a25.511,25.511,0,0,0,3.153.821,22.945,22.945,0,0,1,3.524.994,5.4,5.4,0,0,1,2.292,1.55,4.04,4.04,0,0,1,.808,2.65,4.772,4.772,0,0,1-.477,2.186,4.072,4.072,0,0,1-1.378,1.55,6.812,6.812,0,0,1-2.133.927A10.977,10.977,0,0,1,8.845-9.5a11.885,11.885,0,0,1-2.782-.318,10.788,10.788,0,0,1-2.491-.927A9.663,9.663,0,0,1,1.4-12.3l.715-1.086a7.3,7.3,0,0,0,1.312,1.126,8.479,8.479,0,0,0,1.59.835,10.64,10.64,0,0,0,1.842.543,10.248,10.248,0,0,0,2.04.2,6.972,6.972,0,0,0,3.855-.914,3.038,3.038,0,0,0,1.391-2.716,3.056,3.056,0,0,0-.636-2.014,4.516,4.516,0,0,0-1.961-1.259A24.415,24.415,0,0,0,8.236-18.5a23.232,23.232,0,0,1-3.378-.954A4.69,4.69,0,0,1,2.765-20.89a3.864,3.864,0,0,1-.7-2.438A4.848,4.848,0,0,1,2.9-26.2a5.143,5.143,0,0,1,2.345-1.789A9.221,9.221,0,0,1,8.713-28.6a10.189,10.189,0,0,1,2.265.238,7.36,7.36,0,0,1,1.934.729A7.832,7.832,0,0,1,14.569-26.4ZM36-9.655V-25.844L28.612-13.179h-.9L20.318-25.844V-9.655H18.967V-28.468h1.351l7.843,13.46L36-28.468h1.351V-9.655Z" transform="translate(163.805 28.262)" fill="#2a527b"/>
      <path id="Path_2" data-name="Path 2" d="M9.3-25.3v-46.4H28.841a12.2,12.2,0,0,1,5.531,1.242,14.128,14.128,0,0,1,4.306,3.3,15.824,15.824,0,0,1,2.848,4.607,13.871,13.871,0,0,1,1.027,5.228,15.215,15.215,0,0,1-1.391,6.469,13.957,13.957,0,0,1-3.875,5.032,11.466,11.466,0,0,1-5.8,2.483L43.215-25.3H39.307L27.914-42.81H12.678V-25.3Zm3.378-20.584H29.172a8.784,8.784,0,0,0,5.3-1.634,10.822,10.822,0,0,0,3.478-4.247,12.925,12.925,0,0,0,1.225-5.554A11.379,11.379,0,0,0,37.751-62.9a11.967,11.967,0,0,0-3.776-4.182,9.146,9.146,0,0,0-5.266-1.6H12.678ZM47.985-35.1a8.122,8.122,0,0,1,1.855-5.326,12.213,12.213,0,0,1,5.1-3.529,20.386,20.386,0,0,1,7.485-1.274,34.676,34.676,0,0,1,5.5.457,30.043,30.043,0,0,1,5.1,1.242v-3.2a10.282,10.282,0,0,0-2.749-7.515,10.123,10.123,0,0,0-7.585-2.81,15.223,15.223,0,0,0-5.366,1.046A27.8,27.8,0,0,0,51.628-53l-1.391-2.352a31.666,31.666,0,0,1,6.525-3.365,18.227,18.227,0,0,1,6.26-1.144q6.16,0,9.737,3.594t3.577,9.8V-29.61a1.674,1.674,0,0,0,.364,1.176,1.631,1.631,0,0,0,1.093.457V-25.3a9.413,9.413,0,0,1-.994.065h-.662a3.018,3.018,0,0,1-1.954-1.046,3.256,3.256,0,0,1-.762-1.9v-2.679a15.947,15.947,0,0,1-6.127,4.574,19.414,19.414,0,0,1-7.85,1.634,12.428,12.428,0,0,1-5.862-1.372,10.464,10.464,0,0,1-4.107-3.757A9.845,9.845,0,0,1,47.985-35.1ZM71.7-32.29a7.347,7.347,0,0,0,.994-1.634,3.728,3.728,0,0,0,.331-1.438v-5.62a26.958,26.958,0,0,0-4.968-1.372,30.339,30.339,0,0,0-5.3-.457,15.507,15.507,0,0,0-8.379,2.026A6.213,6.213,0,0,0,51.164-35.3a7.463,7.463,0,0,0,1.126,3.986,8.3,8.3,0,0,0,3.146,2.941,9.536,9.536,0,0,0,4.67,1.111,16.623,16.623,0,0,0,6.856-1.4A11.314,11.314,0,0,0,71.7-32.29ZM84.02-42.222a18.835,18.835,0,0,1,2.053-8.756,17.215,17.215,0,0,1,5.63-6.437,14.074,14.074,0,0,1,8.148-2.45,13.909,13.909,0,0,1,7.982,2.352,18.209,18.209,0,0,1,5.465,5.62V-73h3.312v43.39a1.674,1.674,0,0,0,.364,1.176,1.552,1.552,0,0,0,1.027.457V-25.3a7.086,7.086,0,0,1-1.59.065,3.258,3.258,0,0,1-1.987-1.111,2.941,2.941,0,0,1-.795-1.96v-3.79a15.726,15.726,0,0,1-5.7,5.424,14.743,14.743,0,0,1-7.353,2.026,15.041,15.041,0,0,1-6.624-1.47,16.75,16.75,0,0,1-5.266-3.953,18.424,18.424,0,0,1-3.445-5.62A17.8,17.8,0,0,1,84.02-42.222ZM113.3-36.733V-47.907a12.7,12.7,0,0,0-2.981-4.542,16.218,16.218,0,0,0-4.637-3.267,11.966,11.966,0,0,0-5.1-1.209,11.643,11.643,0,0,0-5.4,1.242,13.374,13.374,0,0,0-4.173,3.333,15.031,15.031,0,0,0-2.683,4.738,16.383,16.383,0,0,0-.927,5.456,14.717,14.717,0,0,0,1.06,5.522,15.327,15.327,0,0,0,2.948,4.7,13.6,13.6,0,0,0,4.372,3.2,12.753,12.753,0,0,0,5.4,1.144,11.383,11.383,0,0,0,3.809-.719,16.094,16.094,0,0,0,3.842-1.993,12.962,12.962,0,0,0,3.047-2.941A7.157,7.157,0,0,0,113.3-36.733ZM127.143-25.3v-33.98h3.312V-25.3Zm0-41.691V-73h3.312v6.012Zm28.351,42.344a16.075,16.075,0,0,1-6.69-1.4,17.063,17.063,0,0,1-5.432-3.855,17.871,17.871,0,0,1-3.61-5.652,18.166,18.166,0,0,1-1.292-6.861,17.8,17.8,0,0,1,2.186-8.822,16.878,16.878,0,0,1,6.028-6.273,16.405,16.405,0,0,1,8.744-2.352,15.91,15.91,0,0,1,8.28,2.124,13.5,13.5,0,0,1,5.366,5.783l-3.246,1.046a11.043,11.043,0,0,0-4.339-4.411,12.31,12.31,0,0,0-6.194-1.6,12.656,12.656,0,0,0-6.823,1.9,13.894,13.894,0,0,0-4.869,5.2,15.088,15.088,0,0,0-1.822,7.417,15.3,15.3,0,0,0,1.855,7.449,14.646,14.646,0,0,0,4.935,5.391,12.242,12.242,0,0,0,6.79,1.993,12.867,12.867,0,0,0,4.67-.882,13.66,13.66,0,0,0,3.974-2.32,6.909,6.909,0,0,0,2.219-3.071l3.246.915a10.237,10.237,0,0,1-2.981,4.28,16.149,16.149,0,0,1-4.935,2.941A16.8,16.8,0,0,1,155.494-24.644ZM174.108-35.1a8.122,8.122,0,0,1,1.855-5.326,12.213,12.213,0,0,1,5.1-3.529,20.386,20.386,0,0,1,7.485-1.274,34.677,34.677,0,0,1,5.5.457,30.042,30.042,0,0,1,5.1,1.242v-3.2a10.283,10.283,0,0,0-2.749-7.515,10.123,10.123,0,0,0-7.585-2.81,15.223,15.223,0,0,0-5.366,1.046,27.8,27.8,0,0,0-5.7,3.006l-1.391-2.352a31.666,31.666,0,0,1,6.525-3.365,18.227,18.227,0,0,1,6.26-1.144q6.16,0,9.737,3.594t3.577,9.8V-29.61a1.674,1.674,0,0,0,.364,1.176,1.632,1.632,0,0,0,1.093.457V-25.3a9.413,9.413,0,0,1-.994.065h-.662a3.018,3.018,0,0,1-1.954-1.046,3.256,3.256,0,0,1-.762-1.9v-2.679a15.947,15.947,0,0,1-6.127,4.574,19.414,19.414,0,0,1-7.85,1.634,12.428,12.428,0,0,1-5.862-1.372,10.464,10.464,0,0,1-4.107-3.757A9.845,9.845,0,0,1,174.108-35.1Zm23.714,2.81a7.346,7.346,0,0,0,.994-1.634,3.728,3.728,0,0,0,.331-1.438v-5.62a26.958,26.958,0,0,0-4.968-1.372,30.339,30.339,0,0,0-5.3-.457,15.507,15.507,0,0,0-8.379,2.026,6.213,6.213,0,0,0-3.213,5.489,7.463,7.463,0,0,0,1.126,3.986,8.3,8.3,0,0,0,3.146,2.941,9.536,9.536,0,0,0,4.67,1.111,16.623,16.623,0,0,0,6.856-1.4A11.314,11.314,0,0,0,197.822-32.29ZM212.792-73h3.378v40.972a4.214,4.214,0,0,0,.994,3.235,3.746,3.746,0,0,0,2.583.882,12.74,12.74,0,0,0,2.186-.2,10.886,10.886,0,0,0,1.987-.523l.662,2.679a20.949,20.949,0,0,1-2.782.719,15.044,15.044,0,0,1-2.848.327,6.09,6.09,0,0,1-4.471-1.666,6,6,0,0,1-1.689-4.476Z" transform="translate(206.832 72)" fill="#2a527b"/>
    </g>
    <path id="Artboard_2" data-name="Artboard 2" d="M62.946,37.706a7.9,7.9,0,0,1,2.409,1.354l.359.277a3.86,3.86,0,1,0-.464-5.363l-.314.344A7.981,7.981,0,0,1,62.8,36.06a10.046,10.046,0,0,1-2.162.486,24.58,24.58,0,0,0-4.152-7.884,8.8,8.8,0,0,1,1.563-.913,4.757,4.757,0,0,1,1.72-.082h.284a2.4,2.4,0,1,0-2.02-2.685.523.523,0,0,1-.052.277,4.952,4.952,0,0,1-.554,1.631,8.782,8.782,0,0,1-1.309,1.294,24.685,24.685,0,0,0-6.889-5.752A7.114,7.114,0,0,1,50.327,21.2a7.794,7.794,0,0,1,2.521-1.055l.449-.12a3.869,3.869,0,1,0-4.5-2.932,3.065,3.065,0,0,0,.082.456,8.109,8.109,0,0,1,.082,2.753,7.78,7.78,0,0,1-.748,1.593,24.453,24.453,0,0,0-7.562-2.371,7.585,7.585,0,0,1,.381-1.548,5.094,5.094,0,0,1,1.144-1.324l.224-.194a2.458,2.458,0,1,0-3.418-.389l.172.232a5.087,5.087,0,0,1,.815,1.556,7.129,7.129,0,0,1,0,1.586,24.908,24.908,0,0,0-2.813-.165,24.326,24.326,0,0,0-6.53.868,13.023,13.023,0,0,1-.367-2.641,7.832,7.832,0,0,1,.913-2.6l.217-.411a3.852,3.852,0,1,0-5.236,1.391l.389.247a7.779,7.779,0,0,1,2.087,1.8,12.918,12.918,0,0,1,1,2.5,24.505,24.505,0,0,0-8.737,4.982,7.712,7.712,0,0,1-.995-1.279,4.488,4.488,0,0,1-.277-1.533c0-.082,0-.165,0-.254a2.169,2.169,0,1,0-3.74,1.5,2.139,2.139,0,0,0,1.556.643H17.7a4.354,4.354,0,0,1,1.5.3,7.4,7.4,0,0,1,1.249,1A24.415,24.415,0,0,0,16.7,30.2a4.039,4.039,0,0,1-.748-.636,3.134,3.134,0,0,1-.411-1.055l.03-.142a1.586,1.586,0,1,0-1.249,1.818h.187a3.411,3.411,0,0,1,1.137,0,4.7,4.7,0,0,1,.83.426,24.131,24.131,0,0,0-2.154,4.2,9.888,9.888,0,0,1-2.035-.8,7.914,7.914,0,0,1-1.8-2.072l-.254-.381a3.86,3.86,0,1,0-1.272,5.236l.4-.224a7.929,7.929,0,0,1,2.588-.972A9.724,9.724,0,0,1,14,35.8a24.64,24.64,0,0,0-1.354,8.034c0,.711.037,1.406.1,2.094A8.871,8.871,0,0,1,11,46.039,4.652,4.652,0,0,1,9.583,45.4l-.217-.142a2.169,2.169,0,1,0-.905,3.9,2.192,2.192,0,0,0,1.421-.913l.157-.2a4.391,4.391,0,0,1,1.115-1.085,7.966,7.966,0,0,1,1.586-.471,24.243,24.243,0,0,0,1.945,7.271,14.055,14.055,0,0,1-2.693.875A8.3,8.3,0,0,1,9.1,54.132l-.464-.15a4.1,4.1,0,1,0,2.379,5.236l.187-.449a8.617,8.617,0,0,1,1.5-2.513,14.085,14.085,0,0,1,2.468-1.5,24.827,24.827,0,0,0,3.74,5.476,8.707,8.707,0,0,1-1.444,1.032,6.545,6.545,0,0,1-2.244.344h-.381a3.164,3.164,0,1,0,3.029,3.231v-.382a6.643,6.643,0,0,1,.486-2.244,8.864,8.864,0,0,1,1.122-1.384,25.03,25.03,0,0,0,3.68,3.149,7.727,7.727,0,0,1-1.077,1.159,4.488,4.488,0,0,1-1.5.524l-.254.045a2.169,2.169,0,1,0,2.057,3.433,2.147,2.147,0,0,0,.389-1.638,2.38,2.38,0,0,0,0-.254,4.72,4.72,0,0,1,.052-1.556,7.69,7.69,0,0,1,.785-1.421A24.175,24.175,0,0,0,28.545,66.8a11.878,11.878,0,0,1-1.032,2.244,8.026,8.026,0,0,1-2.177,1.7l-.4.232a3.852,3.852,0,1,0,5.131,1.623c-.067-.142-.135-.277-.194-.411a8.041,8.041,0,0,1-.793-2.641,11.22,11.22,0,0,1,.441-2.4,24.445,24.445,0,0,0,7.66,1.227h1.122a9.65,9.65,0,0,1-.247,1.892,5.027,5.027,0,0,1-1,1.406l-.194.2a2.4,2.4,0,1,0,3.359.067c-.067-.075-.135-.142-.187-.209a5.236,5.236,0,0,1-.95-1.444,10.046,10.046,0,0,1-.165-1.952,24.633,24.633,0,0,0,7.727-1.81A11.692,11.692,0,0,1,47,68.951a8.131,8.131,0,0,1-.9,2.611l-.217.4a3.86,3.86,0,1,0,5.236-1.421l-.426-.284a7.787,7.787,0,0,1-2.1-1.788,11.968,11.968,0,0,1-.995-2.416,24.894,24.894,0,0,0,5.984-3.95,8.467,8.467,0,0,1,.928,1.5,4.765,4.765,0,0,1,.1,1.72c0,.09,0,.187,0,.284a2.446,2.446,0,0,0,.486,1.81,2.409,2.409,0,1,0,2.169-3.875l-.314-.015A5.057,5.057,0,0,1,55.316,63a9.141,9.141,0,0,1-1.294-1.324,24.737,24.737,0,0,0,4.488-5.715,12.9,12.9,0,0,1,2.154,1.5,8.041,8.041,0,0,1,1.279,2.446l.15.434a3.86,3.86,0,1,0,2.536-4.75l-.441.12A8.108,8.108,0,0,1,61.443,56a12.335,12.335,0,0,1-2.453-.942,24.385,24.385,0,0,0,2.454-7.48,8.707,8.707,0,0,1,1.765.4A5.087,5.087,0,0,1,64.517,49.1l.187.217a2.4,2.4,0,1,0,.4-3.321l-.232.172a4.885,4.885,0,0,1-1.5.815,8.864,8.864,0,0,1-1.8,0,24.393,24.393,0,0,0-.591-9.388,8.976,8.976,0,0,1,1.967.112Z" transform="translate(-3.059 -7.255)" fill="#2a527b"/>
    <g id="Group_9" data-name="Group 9" transform="translate(15.495 16.119)">
      <g id="Group_8" data-name="Group 8" transform="matrix(0.839, 0.545, -0.545, 0.839, 22.184, 0)">
        <path id="Union_3" data-name="Union 3" d="M.941,34.646h0V3.746H0V0H15.918V3.746h-.936v30.9h0c-.137,3.382-3.227,6.087-7.018,6.087S1.078,38.028.941,34.646Z" transform="translate(0 0)" fill="#fff"/>
        <rect id="Rectangle_21" data-name="Rectangle 21" width="3.745" height="1.405" transform="translate(11.236 6.555)" fill="#2a527b"/>
        <rect id="Rectangle_22" data-name="Rectangle 22" width="3.745" height="1.405" transform="translate(11.236 11.236)" fill="#2a527b"/>
        <rect id="Rectangle_23" data-name="Rectangle 23" width="3.745" height="1.405" transform="translate(11.236 15.918)" fill="#2a527b"/>
      </g>
      <path id="Union_4" data-name="Union 4" d="M.042,11.481H0L0,7.016,10.806,0V11.481h-.042a5.4,5.4,0,0,1-10.722,0Z" transform="matrix(0.839, 0.545, -0.545, 0.839, 11.767, 20.545)" fill="#2a527b"/>
    </g>
  </g>
</svg>
